# xmcd
#
# Track frame offsets:
#	150
#	13675
#	25113
#	37425
#	51390
#	65155
#	79850
#	93215
#	109210
#	123813
#	135968
#	151180
#	164933
#	178413
#
# Disc length: 2560 seconds
#
# Revision: 3
# Processed by: cddbd v1.5.2PL0 Copyright (c) Steve Scherf et al.
# Submitted via: EasyCDDAExtractor 15.3.0.1
#
DISCID=c309fe0e
DTITLE=Various Artist - Favorite Country Blues Guitar-Piano Duets
DYEAR=1992
DGENRE=Blues
TTITLE0=Walter Davis - Sloppy Drunk Again
TTITLE1=Buddy Woods - Don't Sell It, Don't Give It Away
TTITLE2=Blind Blake - Poker Woman Blues
TTITLE3=Willie Harris - West Side Blues
TTITLE4=Joe Evans - Shook It This Morning Blues
TTITLE5=Charlie Spand - Good Gal
TTITLE6=Bumble Bee Slim - New Orleans Stop Time
TTITLE7=Roosevelt Skyes and Clifford Gibson - Tired Of Being Mistreated
TTITLE8=Springback James - Poor Coal Passer
TTITLE9=Joe Evans - Down In Black Bottom
TTITLE10=Charlie Spand - Back To The Woods Blues
TTITLE11=Cripple Clarence Lofton - Monkey Man Blues
TTITLE12=Leroy Carr - Sloppy Drunk Blues
TTITLE13=Leola Manning - The Blues Is All Wrong
EXTD=
EXTT0=
EXTT1=
EXTT2=
EXTT3=
EXTT4=
EXTT5=
EXTT6=
EXTT7=
EXTT8=
EXTT9=
EXTT10=
EXTT11=
EXTT12=
EXTT13=
PLAYORDER=
